<?xml version="1.0" encoding="iso-8859-1"?>
<!-- Uploaded to: SVG Repo, www.svgrepo.com, Generator: SVG Repo Mixer Tools -->
<svg fill="#000000" height="800px" width="800px" version="1.1" id="Layer_1" xmlns="http://www.w3.org/2000/svg" xmlns:xlink="http://www.w3.org/1999/xlink" 
	 viewBox="0 0 512 512" xml:space="preserve">
<g>
	<g>
		<path d="M507.803,326.204c-3.05-2.324-7.114-2.829-10.641-1.321c-4.514,1.93-8.524,3.085-12.037,3.709
			c16.799-19.587,18.23-45.202,18.296-46.61c0.179-3.84-1.725-7.479-4.982-9.52c-3.255-2.043-7.362-2.171-10.739-0.338
			c-4.723,2.562-9.729,3.63-14.467,3.851c11.886-16.241,14.915-39.166,15.334-42.851c0.477-4.197-1.579-8.272-5.228-10.399
			c-3.649-2.126-8.218-1.89-11.637,0.592c-5.426,3.944-23.516,14.27-35.101,10.089c-5.84-2.105-10.127-8.285-12.739-18.372
			c-0.258-1.166-0.536-2.322-0.819-3.49c-0.913-3.722-1.927-7.391-3.022-10.988c7.621-4.097,14.574-9.522,20.439-16.012
			c13.055-14.442,25.18-38.897,30.891-62.302c7.201-29.507,3.415-52.76-10.657-65.475c-14.067-12.717-37.583-14.14-66.216-4.007
			c-22.713,8.039-45.821,22.562-58.874,37.001c-2.349,2.602-4.506,5.344-6.459,8.203c-1.97-0.786-3.955-1.549-5.961-2.26
			c-5.544-1.971-11.634,0.929-13.602,6.474c-1.968,5.543,0.93,11.634,6.474,13.602c4.431,1.573,8.779,3.363,12.912,5.313
			c8.133,3.847,15.78,8.469,22.756,13.755c1.453,1.094,2.945,2.278,4.433,3.518c10.142,8.452,18.982,18.596,26.281,30.162
			c5.713,9.03,10.572,19.085,14.448,29.907c2.086,5.783,3.924,11.899,5.458,18.156c0.256,1.055,0.512,2.12,0.748,3.196
			c0.027,0.12,0.055,0.242,0.086,0.362c4.475,17.477,13.315,28.69,26.275,33.326c11.031,3.947,22.721,2.093,32.488-1.317
			c-3.589,9.168-9.025,17.642-16.697,18.794c-4.627,0.694-8.258,4.327-8.952,8.954c-0.692,4.628,1.714,9.165,5.933,11.187
			c0.905,0.434,17.359,8.141,36.578,5.778c-3.371,9.946-10.097,21.998-23.447,28.125c-3.343,1.534-5.657,4.683-6.123,8.331
			c-0.467,3.648,0.982,7.277,3.831,9.603c1.491,1.218,12.277,9.351,31.373,7.301c-3.174,6.04-7.86,13.143-14.724,20.392
			c-16.222,17.128-39.687,29.938-69.095,37.929c5.358-9.968,11.622-23.058,16.68-37.702c14.3-41.405,12.059-76.334-6.48-101.012
			c-17.996-23.956-41.349-35.146-62.458-29.943c-12.985,3.202-22.2,12.267-24.047,23.655c-1.882,11.601,4.222,22.791,16.749,30.702
			c26.282,16.59,61.882,68.572,31.302,120.206c-4.816,0.737-9.751,1.368-14.801,1.89c1.056-4.165,1.596-8.536,1.596-13.099
			c0-20.552-11.857-42.275-32.53-59.6c-20.737-17.377-47.318-27.345-72.926-27.345c-56.804,0-100.864,46.738-100.864,86.946
			c0,4.562,0.539,8.934,1.596,13.099c-5.05-0.522-9.985-1.153-14.801-1.89c-30.58-51.634,5.019-103.616,31.304-120.207
			c12.524-7.91,18.628-19.101,16.747-30.701c-1.847-11.388-11.062-20.453-24.047-23.655c-21.115-5.206-44.461,5.988-62.458,29.943
			c-18.539,24.677-20.78,59.607-6.48,101.012c5.056,14.643,11.322,27.733,16.68,37.702c-29.409-7.991-52.874-20.801-69.095-37.929
			c-6.865-7.25-11.553-14.356-14.725-20.392c19.097,2.046,29.884-6.083,31.374-7.301c2.849-2.325,4.298-5.954,3.831-9.603
			s-2.78-6.797-6.123-8.331c-13.226-6.069-19.959-18.147-23.367-28.117c19.188,2.331,35.594-5.354,36.499-5.787
			c4.219-2.021,6.627-6.558,5.933-11.187c-0.693-4.627-4.326-8.259-8.952-8.954c-7.673-1.153-13.109-9.626-16.697-18.793
			c9.763,3.406,21.461,5.262,32.488,1.315c12.96-4.638,21.8-15.85,26.275-33.326c0.031-0.12,0.06-0.242,0.086-0.362
			c0.235-1.076,0.492-2.141,0.742-3.172c1.539-6.28,3.378-12.398,5.469-18.195c3.886-10.828,8.751-20.898,14.458-29.932
			c7.289-11.539,16.126-21.673,26.262-30.118c8.164-6.797,17.31-12.609,27.185-17.273c20.913-9.871,45.466-14.876,72.977-14.876
			c5.882,0,10.652-4.77,10.652-10.652s-4.77-10.652-10.652-10.652c-26.918,0-51.473,4.383-73.154,13.04
			c-1.958-2.866-4.113-5.607-6.455-8.202c-13.049-14.435-36.156-28.958-58.87-36.996c-28.632-10.131-52.148-8.711-66.214,4.005
			C37.236,69.48,33.45,92.734,40.651,122.24c5.711,23.405,17.837,47.861,30.89,62.301c5.869,6.494,12.821,11.921,20.439,16.017
			c-1.096,3.601-2.111,7.276-3.026,11.009c-0.278,1.145-0.555,2.3-0.814,3.466c-2.612,10.087-6.898,16.268-12.739,18.372
			c-11.581,4.179-29.674-6.146-35.083-10.075c-3.41-2.504-7.982-2.75-11.645-0.626c-3.662,2.123-5.718,6.213-5.24,10.419
			c0.42,3.686,3.447,26.606,15.33,42.846c-4.738-0.221-9.746-1.287-14.463-3.845c-3.38-1.836-7.483-1.706-10.739,0.338
			c-3.257,2.042-5.161,5.68-4.982,9.52c0.066,1.408,1.497,27.024,18.295,46.61c-3.511-0.625-7.523-1.78-12.036-3.709
			c-3.528-1.508-7.592-1.002-10.641,1.321c-3.051,2.325-4.617,6.109-4.101,9.909c0.131,0.964,3.464,23.88,25.471,47.82
			c28.306,30.792,72.886,49.015,132.517,54.166c8.285,5.143,17.007,9.638,25.987,13.403c12.838,6.904,32.047,11.671,53.698,13.532
			c5.203,0.503,10.445,0.801,15.722,0.869c0.829,0.022,1.668,0.023,2.507,0.023c0.594,0,1.185-0.008,1.776-0.017
			c0.173,0.009,0.345,0.017,0.521,0.017c28.086,0,52.113-4.982,69.57-14.399c9.005-3.772,17.745-8.276,26.048-13.429
			c59.63-5.151,104.21-23.372,132.517-54.166c22.007-23.94,25.34-46.855,25.471-47.82
			C512.42,332.313,510.854,328.529,507.803,326.204z M401.338,146.363c-1.548,1.716-3.382,3.094-5.387,4.1
			c-6.002-8.502-12.777-16.273-20.248-23.223c0.544-0.844,1.153-1.651,1.832-2.402c4.091-4.525,12.278-9.573,19.911-12.275
			c8.385-2.971,13.049-2.169,13.997-1.31c0.947,0.855,2.218,5.417,0.109,14.06C409.632,133.177,405.437,141.829,401.338,146.363z
			 M412.588,180.259c-1.716-3.968-3.55-7.837-5.512-11.585c3.735-2.091,7.147-4.791,10.072-8.036
			c6.515-7.206,12.301-18.808,15.099-30.278c3.743-15.334,1.426-27.735-6.517-34.913c-7.943-7.186-20.516-8.237-35.395-2.969
			c-11.128,3.941-22.089,10.866-28.599,18.068c-0.961,1.061-1.849,2.18-2.688,3.335c-3.352-2.302-6.817-4.482-10.388-6.524
			c0.876-1.132,1.783-2.243,2.75-3.315c10.686-11.823,30.85-24.36,50.175-31.199c20.305-7.186,37.061-7.289,44.824-0.272
			c7.764,7.015,9.35,23.695,4.245,44.619c-4.86,19.914-15.308,41.24-25.999,53.068C421.117,174.174,417.032,177.536,412.588,180.259
			z M116.042,150.46c-2-1.007-3.834-2.387-5.387-4.108c-4.09-4.524-8.286-13.176-10.206-21.041
			c-2.109-8.644-0.838-13.205,0.113-14.065c0.944-0.854,5.605-1.657,13.991,1.314c7.633,2.702,15.821,7.75,19.916,12.279
			c0.686,0.757,1.292,1.558,1.832,2.392C128.827,134.188,122.047,141.959,116.042,150.46z M87.344,170.256
			c-10.69-11.828-21.139-33.153-25.998-53.067c-5.105-20.923-3.519-37.603,4.247-44.621c7.76-7.014,24.517-6.912,44.822,0.274
			c19.325,6.84,39.487,19.377,50.169,31.194c0.969,1.074,1.881,2.191,2.761,3.331c-3.563,2.039-7.036,4.205-10.393,6.51
			c-0.836-1.153-1.723-2.269-2.682-3.329c-6.514-7.206-17.474-14.131-28.603-18.072c-14.882-5.268-27.452-4.216-35.391,2.964
			c-7.948,7.182-10.265,19.582-6.522,34.917c2.798,11.471,8.584,23.072,15.092,30.271c2.932,3.25,6.345,5.952,10.078,8.043
			c-1.96,3.75-3.794,7.62-5.51,11.588C94.973,177.541,90.887,174.176,87.344,170.256z M109.93,346.732
			c-5.228-22.394-5.262-46.068,8.282-64.1c12.6-16.772,25.719-22.634,35.332-22.634c1.796,0,3.468,0.203,4.994,0.581
			c5.069,1.249,7.762,4.184,8.118,6.38c0.436,2.685-2.283,6.239-7.091,9.277c-15.325,9.674-35.501,30.354-46.167,59.381
			C112.136,339.05,110.951,342.768,109.93,346.732z M318.659,432.283c-19.184,7.905-39.511,12.052-60.435,12.318
			c-6.31-0.002-12.529-0.273-18.526-0.783c-15.966-1.557-31.502-5.415-46.355-11.535c-12.909-7.25-19.199-16.748-19.199-29.035
			c0-29.731,35.489-65.642,79.56-65.642c44.531,0,84.152,36.707,84.152,65.642C337.857,415.535,331.567,425.035,318.659,432.283z
			 M352.438,276.237c-4.811-3.039-7.529-6.592-7.093-9.278c0.356-2.198,3.049-5.131,8.118-6.38c1.525-0.377,3.198-0.581,4.994-0.581
			c9.613,0,22.733,5.863,35.332,22.634c13.545,18.031,13.511,41.704,8.282,64.1c-1.019-3.964-2.205-7.682-3.467-11.115
			C387.938,306.59,367.761,285.911,352.438,276.237z"/>
	</g>
</g>
<g>
	<g>
		<path d="M294.538,88.188c-1.369-0.244-2.747-0.474-4.134-0.691c-5.798-0.912-11.262,3.06-12.173,8.873
			c-0.912,5.812,3.061,11.262,8.873,12.173c1.241,0.195,2.473,0.402,3.699,0.619c0.633,0.113,1.26,0.167,1.88,0.167
			c5.065,0,9.556-3.627,10.474-8.787C304.19,94.749,300.33,89.219,294.538,88.188z"/>
	</g>
</g>
<g>
	<g>
		<path d="M208.708,279.337c-13.451,0-24.394,10.948-24.394,24.406c0,5.882,4.77,10.652,10.652,10.652s10.652-4.77,10.652-10.652
			c0-1.71,1.387-3.102,3.09-3.102c1.71,0,3.102,1.392,3.102,3.102c0,5.882,4.77,10.652,10.652,10.652s10.652-4.77,10.652-10.652
			C233.114,290.285,222.166,279.337,208.708,279.337z"/>
	</g>
</g>
<g>
	<g>
		<path d="M232.413,206.386c-10.896-12.983-24.744-21.602-41.167-25.624c-14.667-3.586-21.484,1.354-24.621,6.129
			c-4.885,7.436-6.257,19.822,20.605,55.299c5.503,7.275,14.085,11.416,22.992,11.416c2.103,0,4.226-0.231,6.327-0.706
			c9.907-2.231,17.766-9.314,21.023-18.953C240.801,224.389,238.872,214.086,232.413,206.386z M217.389,227.127
			c-0.413,1.221-1.776,4.149-5.523,4.99c-0.004,0.001-0.007,0.002-0.012,0.003c-2.867,0.644-5.868-0.442-7.638-2.784
			c-10.195-13.466-15.301-22.498-17.534-27.756c11.707,2.972,21.601,9.195,29.41,18.5
			C218.458,222.9,217.787,225.948,217.389,227.127z"/>
	</g>
</g>
<g>
	<g>
		<path d="M297.339,412.216h-2.418c-4.364,0-8.688-0.724-12.801-2.077c8.3-6.305,13.841-15.554,13.841-25.291
			c0-15.934-14.785-26.229-37.665-26.229h-4.592c-22.88,0-37.665,10.295-37.665,26.229c0,9.737,5.541,18.986,13.841,25.291
			c-4.113,1.353-8.436,2.077-12.801,2.077h-2.418c-5.882,0-10.652,4.77-10.652,10.652c0,5.882,4.77,10.652,10.652,10.652h2.418
			c14.097,0,27.932-4.915,38.921-13.643c10.988,8.727,24.824,13.643,38.921,13.643h2.418c5.882,0,10.652-4.77,10.652-10.652
			C307.99,416.986,303.221,412.216,297.339,412.216z M258.297,397.045h-4.592c-9.452,0-16.361-8.022-16.361-12.197
			c0-2.012,5.826-4.925,16.361-4.925h4.592c10.536,0,16.361,2.912,16.361,4.925C274.658,389.023,267.75,397.045,258.297,397.045z"/>
	</g>
</g>
<g>
	<g>
		<path d="M303.294,279.337c-13.458,0-24.406,10.948-24.406,24.406c0,5.882,4.77,10.652,10.652,10.652s10.652-4.77,10.652-10.652
			c0-1.71,1.392-3.102,3.102-3.102c1.704,0,3.09,1.392,3.09,3.102c0,5.882,4.77,10.652,10.652,10.652s10.652-4.77,10.652-10.652
			C327.688,290.285,316.745,279.337,303.294,279.337z"/>
	</g>
</g>
<g>
	<g>
		<path d="M345.377,186.891c-3.136-4.774-9.956-9.717-24.624-6.128c-16.42,4.02-30.269,12.641-41.165,25.624
			c-6.458,7.699-8.387,18.001-5.158,27.56c3.257,9.639,11.116,16.723,21.023,18.953c2.104,0.475,4.225,0.706,6.328,0.706
			c8.905,0,17.488-4.14,22.988-11.411C351.634,206.713,350.262,194.327,345.377,186.891z M307.781,229.341
			c-1.767,2.336-4.761,3.429-7.635,2.78c-0.004-0.001-0.007-0.002-0.012-0.003c-3.747-0.841-5.11-3.77-5.523-4.99
			c-0.397-1.179-1.068-4.228,1.296-7.045c7.811-9.308,17.706-15.53,29.411-18.501C323.085,206.839,317.978,215.871,307.781,229.341z
			"/>
	</g>
</g>
</svg>